<svg width="120" height="120" viewBox="0 0 120 120" fill="none" xmlns="http://www.w3.org/2000/svg">
<g clip-path="url(#clip0_539_5114)">
<path d="M110.135 31.0976C108.985 32.2475 107.79 33.1814 106.53 33.923L86.0751 13.4673C86.8167 12.2085 87.7496 11.0128 88.9004 9.86196C91.0995 7.66286 91.0995 4.08406 88.8995 1.88404C86.7004 -0.315056 83.1216 -0.315972 80.9216 1.88404C71.7663 11.0393 71.6326 22.1062 73.2348 32.0983C61.603 29.7005 48.7444 28.6806 38.4795 38.9446C33.8396 43.5854 31.1718 49.0356 30.324 55.6082C30.1995 56.5722 30.8806 57.4548 31.8447 57.5793C32.806 57.7038 33.6913 57.0227 33.8149 56.0586C34.5601 50.2871 36.8993 45.5035 40.9688 41.434C50.4263 31.9765 62.3739 33.3379 73.9123 35.8401C74.2565 37.564 74.5614 38.9163 74.8974 40.4022C63.4332 37.7947 52.3296 35.9518 43.9562 44.446C25.2391 63.1897 57.0437 95.1663 36.1211 116.089C35.2944 116.916 33.9486 116.916 33.1218 116.089C32.2942 115.262 32.2942 113.916 33.1218 113.09C46.3888 99.8218 34.5345 80.7623 33.6052 62.5149C33.5549 61.5444 32.7355 60.7955 31.7577 60.8468C30.7863 60.8963 30.0393 61.7239 30.0887 62.6944C30.2819 66.4791 30.9246 70.2722 31.6323 73.6999C21.6402 72.0987 10.5742 72.2323 1.41892 81.3867C-0.785668 83.5904 -0.786584 87.16 1.41892 89.3646C3.62352 91.5701 7.19225 91.5701 9.39776 89.3646C10.5477 88.2147 11.7433 87.2818 13.0022 86.5402L33.4578 106.995C32.7154 108.255 31.7824 109.45 30.6325 110.6C28.4325 112.799 28.4325 116.379 30.6325 118.578C32.8316 120.778 36.4104 120.778 38.6104 118.578C47.7657 109.423 47.8994 98.356 46.2972 88.3639C59.5742 91.1005 71.4386 91.1316 81.0525 81.5176C91.3174 71.2527 90.2957 58.3923 87.8979 46.7605C91.2378 47.2915 94.5923 47.6129 97.9697 47.5067C98.941 47.4755 99.7037 46.6625 99.6734 45.6912C99.6423 44.7198 98.8312 43.9535 97.8589 43.9874C94.704 44.0862 91.2588 43.7905 87.0895 43.0554C86.7508 41.5695 86.4212 40.1696 86.0504 38.5601C95.8145 40.5257 105.108 41.1034 112.625 33.587C113.451 32.7602 114.796 32.7602 115.624 33.587C116.453 34.4155 116.453 35.7577 115.624 36.5862C112.331 39.8803 108.611 42.019 104.253 43.124C103.311 43.363 102.74 44.3197 102.979 45.2627C103.218 46.2048 104.176 46.7751 105.118 46.5362C110.108 45.2709 114.359 42.8311 118.113 39.0756C119.179 38.0099 119.766 36.5936 119.766 35.0866C119.766 30.0759 113.668 27.5646 110.135 31.0976ZM6.90843 86.8753C6.07897 87.7048 4.73772 87.7048 3.90825 86.8753C3.07969 86.0467 3.07878 84.7055 3.90825 83.876C9.60924 78.175 16.2926 76.4602 22.9393 76.4602C26.1538 76.4602 29.3609 76.8612 32.4434 77.4069C32.7794 78.8846 33.1218 80.3375 33.4826 81.9031C23.7185 79.9365 14.4249 79.3588 6.90843 86.8753ZM16.4601 85.0186C21.2365 83.551 26.9494 84.1122 34.323 85.6741C35.8858 93.0478 36.447 98.7607 34.9785 103.537L16.4601 85.0186ZM43.753 76.2451C42.4108 70.4489 41.2234 65.0436 41.2755 60.1528L59.8443 78.7216C54.9535 78.7738 49.5483 77.5873 43.753 76.2451ZM64.3597 78.2593L41.7379 55.6375C42.2973 52.9678 43.4023 50.4885 45.2718 48.2253L71.7709 74.7253C69.5086 76.5957 67.0303 77.6999 64.3597 78.2593ZM74.2611 72.2369L47.7612 45.7369C50.0234 43.8674 52.5027 42.7624 55.1724 42.203L77.7942 64.8248C77.2348 67.4945 76.1306 69.9737 74.2611 72.2369ZM75.78 44.2172C77.1222 50.0134 78.3087 55.4187 78.2574 60.3094L59.6887 41.7407C64.5785 41.6885 69.9847 42.875 75.78 44.2172ZM78.5632 79.0283C69.1058 88.4857 57.159 87.1243 45.6197 84.6222C45.3716 83.3844 45.1015 82.109 44.6346 80.0601C56.2463 82.7014 67.1209 84.4711 75.5639 76.0281C94.1565 57.4365 62.6083 25.176 83.4118 4.37336C84.2386 3.54664 85.5835 3.54573 86.4111 4.37336C87.2378 5.20009 87.2378 6.54591 86.4111 7.37264C67.7123 26.0714 99.4794 58.113 78.5632 79.0283ZM85.2099 34.7881C83.6471 27.4145 83.0859 21.7016 84.5544 16.9253L103.073 35.4437C98.2965 36.9122 92.5836 36.3509 85.2099 34.7881Z" fill="#19BDFF"/>
</g>
<defs>
<clipPath id="clip0_539_5114">
<rect width="120" height="120" fill="white"/>
</clipPath>
</defs>
</svg>
